<?xml version="1.0" encoding="utf-8"?>
<!-- Generated by Mocodo 4.1.2 -->
<svg width="588" height="289" viewBox="0 0 588 289" xmlns="http://www.w3.org/2000/svg">
<rect x="0" y="0" width="588" height="289" fill="#f5f5f5" stroke="none" stroke-width="0"/>

<!-- Association ASSOCIATE -->
<g>
	<line x1="58" y1="221" x2="58" y2="77" stroke="#bf812d" stroke-width="2"/>
	<line x1="183" y1="77" x2="58" y2="77" stroke="#bf812d" stroke-width="2"/>
	<polygon points="133 77 121 83 125 77 121 71" fill="#bf812d" stroke-width="0"/>
	<g>
		<path d="M87 52 a14 14 90 0 1 14 14 V77 h-86 V66 a14 14 90 0 1 14 -14" fill="#dfc27d" stroke="#dfc27d" stroke-width="0"/>
		<path d="M101 77 v11 a14 14 90 0 1 -14 14 H29 a14 14 90 0 1 -14 -14 V77 H86" fill="#f6e8c3" stroke="#f6e8c3" stroke-width="0"/>
		<rect x="15" y="52" width="86" height="50" fill="none" rx="14" stroke="#bf812d" stroke-width="2"/>
		<line x1="15" y1="77" x2="101" y2="77" stroke="#bf812d" stroke-width="1"/>
		<text x="22" y="69.75" fill="#000000" font-family="Verdana" font-size="12">ASSOCIATE</text>
	</g>
	<text x="63" y="162" fill="#01665e" font-family="Verdana" font-size="12">0,N</text>
	<text x="107" y="94" fill="#01665e" font-family="Verdana" font-size="12">0,1</text>
</g>

<!-- Association BE_PART_OF -->
<g>
	<line x1="183" y1="77" x2="309" y2="77" stroke="#bf812d" stroke-width="2"/>
	<line x1="429" y1="77" x2="309" y2="77" stroke="#bf812d" stroke-width="2"/>
	<polygon points="385 77 373 83 377 77 373 71" fill="#bf812d" stroke-width="0"/>
	<g>
		<path d="M339 52 a14 14 90 0 1 14 14 V77 h-88 V66 a14 14 90 0 1 14 -14" fill="#dfc27d" stroke="#dfc27d" stroke-width="0"/>
		<path d="M353 77 v11 a14 14 90 0 1 -14 14 H279 a14 14 90 0 1 -14 -14 V77 H88" fill="#f6e8c3" stroke="#f6e8c3" stroke-width="0"/>
		<rect x="265" y="52" width="88" height="50" fill="none" rx="14" stroke="#bf812d" stroke-width="2"/>
		<line x1="265" y1="77" x2="353" y2="77" stroke="#bf812d" stroke-width="1"/>
		<text x="273" y="69.75" fill="#000000" font-family="Verdana" font-size="12">BE PART OF</text>
		<text x="272" y="94.8" fill="#000000" font-family="Verdana" font-size="12">quantity</text>
	</g>
	<text x="238" y="94" fill="#01665e" font-family="Verdana" font-size="12">0,N</text>
	<text x="358" y="94" fill="#01665e" font-family="Verdana" font-size="12">0,N</text>
</g>

<!-- Association COMBINE -->
<g>
	<line x1="309" y1="221" x2="183" y2="221" stroke="#bf812d" stroke-width="2"/>
	<line x1="183" y1="77" x2="183" y2="221" stroke="#bf812d" stroke-width="2"/>
	<polygon points="183 145 189 157 183 153 177 157" fill="#bf812d" stroke-width="0"/>
	<g>
		<path d="M206 196 a14 14 90 0 1 14 14 V221 h-74 V210 a14 14 90 0 1 14 -14" fill="#dfc27d" stroke="#dfc27d" stroke-width="0"/>
		<path d="M220 221 v11 a14 14 90 0 1 -14 14 H160 a14 14 90 0 1 -14 -14 V221 H74" fill="#f6e8c3" stroke="#f6e8c3" stroke-width="0"/>
		<rect x="146" y="196" width="74" height="50" fill="none" rx="14" stroke="#bf812d" stroke-width="2"/>
		<line x1="146" y1="221" x2="220" y2="221" stroke="#bf812d" stroke-width="1"/>
		<text x="154" y="213.75" fill="#000000" font-family="Verdana" font-size="12">COMBINE</text>
	</g>
	<text x="242" y="238" fill="#01665e" font-family="Verdana" font-size="12">0,N</text>
	<text x="188" y="162" fill="#01665e" font-family="Verdana" font-size="12">0,N</text>
</g>

<!-- Association PLACE_AN -->
<g>
	<line x1="539" y1="221" x2="429" y2="221" stroke="#bf812d" stroke-width="2"/>
	<line x1="429" y1="77" x2="429" y2="221" stroke="#bf812d" stroke-width="2"/>
	<polygon points="429 136 435 148 429 144 423 148" fill="#bf812d" stroke-width="0"/>
	<g>
		<path d="M453 196 a14 14 90 0 1 14 14 V221 h-76 V210 a14 14 90 0 1 14 -14" fill="#dfc27d" stroke="#dfc27d" stroke-width="0"/>
		<path d="M467 221 v11 a14 14 90 0 1 -14 14 H405 a14 14 90 0 1 -14 -14 V221 H76" fill="#f6e8c3" stroke="#f6e8c3" stroke-width="0"/>
		<rect x="391" y="196" width="76" height="50" fill="none" rx="14" stroke="#bf812d" stroke-width="2"/>
		<line x1="391" y1="221" x2="467" y2="221" stroke="#bf812d" stroke-width="1"/>
		<text x="399" y="213.75" fill="#000000" font-family="Verdana" font-size="12">PLACE AN</text>
	</g>
	<text x="472" y="238" fill="#01665e" font-family="Verdana" font-size="12">0,N</text>
	<text x="434" y="153" fill="#01665e" font-family="Verdana" font-size="12">1,1</text>
</g>

<!-- Entity PRODUCT -->
<g>
	<g>
		<rect x="133" y="9" width="100" height="25" fill="#80cdc1" stroke="none" stroke-width="0" opacity="1"/>
		<rect x="133" y="34" width="100" height="111" fill="#c7eae5" stroke="none" stroke-width="0" opacity="1"/>
		<rect x="133" y="9" width="100" height="136" fill="none" stroke="#35978f" stroke-width="2" opacity="1"/>
		<line x1="133" y1="34" x2="233" y2="34" stroke="#35978f" stroke-width="1"/>
	</g>
	<text x="160" y="26.75" fill="#000000" font-family="Verdana" font-size="12">Product</text>
	<text x="138" y="51.8" fill="#000000" font-family="Verdana" font-size="12">nume_product</text>
	<line x1="138" y1="54" x2="227" y2="54" stroke="#000000" stroke-width="1"/>
	<text x="138" y="68.8" fill="#000000" font-family="Verdana" font-size="12">name</text>
	<text x="138" y="85.8" fill="#000000" font-family="Verdana" font-size="12">quantity</text>
	<text x="138" y="102.8" fill="#000000" font-family="Verdana" font-size="12">status</text>
	<text x="138" y="119.8" fill="#000000" font-family="Verdana" font-size="12">created_at</text>
	<text x="138" y="136.8" fill="#000000" font-family="Verdana" font-size="12">updated_at</text>
</g>

<!-- Entity ORDER -->
<g>
	<g>
		<rect x="385" y="18" width="88" height="25" fill="#80cdc1" stroke="none" stroke-width="0" opacity="1"/>
		<rect x="385" y="43" width="88" height="93" fill="#c7eae5" stroke="none" stroke-width="0" opacity="1"/>
		<rect x="385" y="18" width="88" height="118" fill="none" stroke="#35978f" stroke-width="2" opacity="1"/>
		<line x1="385" y1="43" x2="473" y2="43" stroke="#35978f" stroke-width="1"/>
	</g>
	<text x="412" y="35.75" fill="#000000" font-family="Verdana" font-size="12">Order</text>
	<text x="390" y="60.8" fill="#000000" font-family="Verdana" font-size="12">num_order</text>
	<line x1="390" y1="63" x2="458" y2="63" stroke="#000000" stroke-width="1"/>
	<text x="390" y="77.8" fill="#000000" font-family="Verdana" font-size="12">num_invoice</text>
	<text x="390" y="94.8" fill="#000000" font-family="Verdana" font-size="12">status</text>
	<text x="390" y="111.8" fill="#000000" font-family="Verdana" font-size="12">created_at</text>
	<text x="390" y="128.8" fill="#000000" font-family="Verdana" font-size="12">updated_at</text>
</g>

<!-- Entity CATEGORY -->
<g>
	<g>
		<rect x="9" y="170" width="98" height="25" fill="#80cdc1" stroke="none" stroke-width="0" opacity="1"/>
		<rect x="9" y="195" width="98" height="77" fill="#c7eae5" stroke="none" stroke-width="0" opacity="1"/>
		<rect x="9" y="170" width="98" height="102" fill="none" stroke="#35978f" stroke-width="2" opacity="1"/>
		<line x1="9" y1="195" x2="107" y2="195" stroke="#35978f" stroke-width="1"/>
	</g>
	<text x="30" y="187.75" fill="#000000" font-family="Verdana" font-size="12">Category</text>
	<text x="14" y="212.8" fill="#000000" font-family="Verdana" font-size="12">num_category</text>
	<line x1="14" y1="215" x2="102" y2="215" stroke="#000000" stroke-width="1"/>
	<text x="14" y="229.8" fill="#000000" font-family="Verdana" font-size="12">name</text>
	<text x="14" y="246.8" fill="#000000" font-family="Verdana" font-size="12">created_at</text>
	<text x="14" y="263.8" fill="#000000" font-family="Verdana" font-size="12">updated_at</text>
</g>

<!-- Entity TAG -->
<g>
	<g>
		<rect x="269" y="170" width="80" height="25" fill="#80cdc1" stroke="none" stroke-width="0" opacity="1"/>
		<rect x="269" y="195" width="80" height="77" fill="#c7eae5" stroke="none" stroke-width="0" opacity="1"/>
		<rect x="269" y="170" width="80" height="102" fill="none" stroke="#35978f" stroke-width="2" opacity="1"/>
		<line x1="269" y1="195" x2="349" y2="195" stroke="#35978f" stroke-width="1"/>
	</g>
	<text x="298" y="187.75" fill="#000000" font-family="Verdana" font-size="12">Tag</text>
	<text x="274" y="212.8" fill="#000000" font-family="Verdana" font-size="12">num_tag</text>
	<line x1="274" y1="215" x2="329" y2="215" stroke="#000000" stroke-width="1"/>
	<text x="274" y="229.8" fill="#000000" font-family="Verdana" font-size="12">name</text>
	<text x="274" y="246.8" fill="#000000" font-family="Verdana" font-size="12">created_at</text>
	<text x="274" y="263.8" fill="#000000" font-family="Verdana" font-size="12">updated_at</text>
</g>

<!-- Entity USER -->
<g>
	<g>
		<rect x="499" y="162" width="80" height="25" fill="#80cdc1" stroke="none" stroke-width="0" opacity="1"/>
		<rect x="499" y="187" width="80" height="93" fill="#c7eae5" stroke="none" stroke-width="0" opacity="1"/>
		<rect x="499" y="162" width="80" height="118" fill="none" stroke="#35978f" stroke-width="2" opacity="1"/>
		<line x1="499" y1="187" x2="579" y2="187" stroke="#35978f" stroke-width="1"/>
	</g>
	<text x="525" y="179.75" fill="#000000" font-family="Verdana" font-size="12">User</text>
	<text x="504" y="204.8" fill="#000000" font-family="Verdana" font-size="12">num_user</text>
	<line x1="504" y1="207" x2="566" y2="207" stroke="#000000" stroke-width="1"/>
	<text x="504" y="221.8" fill="#000000" font-family="Verdana" font-size="12">name</text>
	<text x="504" y="238.8" fill="#000000" font-family="Verdana" font-size="12">password</text>
	<text x="504" y="255.8" fill="#000000" font-family="Verdana" font-size="12">created_at</text>
	<text x="504" y="272.8" fill="#000000" font-family="Verdana" font-size="12">updated_at</text>
</g>
</svg>